<svg width="21" height="17" viewBox="0 0 21 17" fill="none" xmlns="http://www.w3.org/2000/svg">
<path d="M19.9791 0.735298H1.02079C0.617472 0.735298 0.291626 1.05074 0.291626 1.44118V15.5588C0.291626 15.9493 0.617472 16.2647 1.02079 16.2647H19.9791C20.3825 16.2647 20.7083 15.9493 20.7083 15.5588V1.44118C20.7083 1.05074 20.3825 0.735298 19.9791 0.735298ZM19.0677 3.17942V14.6765H1.93225V3.17942L1.30334 2.70515L2.19885 1.59118L3.17411 2.32574H17.8281L18.8033 1.59118L19.6989 2.70515L19.0677 3.17942ZM17.8281 2.32353L10.5 7.83824L3.17183 2.32353L2.19657 1.58897L1.30107 2.70295L1.92997 3.17721L9.71383 9.03603C9.93768 9.20439 10.2131 9.29578 10.4965 9.29578C10.78 9.29578 11.0554 9.20439 11.2793 9.03603L19.0677 3.17942L19.6966 2.70515L18.8011 1.59118L17.8281 2.32353Z" fill="#039A7F" stroke="#039A7F" stroke-width="0.7"/>
</svg>
